# Blender v2.79 (sub 0) OBJ File: 'untitled.blend'
# www.blender.org
mtllib untitled.mtl
o Cube_Cube.001
v 0.079660 2.336132 0.240253
v 0.272496 2.336132 0.047417
v 0.465332 2.336132 0.240253
v 0.272496 2.336132 0.433089
v 0.272496 2.143296 0.240253
v 0.272496 2.528968 0.240253
v 0.127869 2.191505 0.240253
v 0.127869 2.336132 0.384880
v 0.127869 2.480759 0.240253
v 0.127869 2.336132 0.095626
v 0.272496 2.191505 0.095626
v 0.272496 2.480759 0.095626
v 0.417123 2.336132 0.095626
v 0.417123 2.191505 0.240253
v 0.417123 2.480759 0.240253
v 0.417123 2.336132 0.384880
v 0.272496 2.191505 0.384880
v 0.272496 2.480759 0.384880
v 0.165365 2.229001 0.347384
v 0.165365 2.443263 0.347384
v 0.165365 2.229001 0.133122
v 0.165365 2.443263 0.133122
v 0.379627 2.229001 0.347384
v 0.379627 2.443263 0.347384
v 0.379627 2.229001 0.133122
v 0.379627 2.443263 0.133122
v 0.000000 0.936951 -1.000000
v 0.000000 1.042388 -0.954892
v 0.707107 0.936951 -0.707107
v 0.675211 1.042388 -0.675211
v 1.000000 0.936951 0.000000
v 0.954892 1.042388 0.000000
v 0.707107 0.936951 0.707107
v 0.675211 1.042388 0.675211
v -0.000000 0.936951 1.000000
v -0.000000 1.042388 0.954892
v -0.707107 0.936951 0.707107
v -0.675211 1.042388 0.675211
v -1.000000 0.936951 -0.000000
v -0.954892 1.042388 -0.000000
v -0.707107 0.936951 -0.707107
v -0.675211 1.042388 -0.675211
v 0.707107 2.033305 -0.707107
v 0.000000 2.033305 -1.000000
v 1.000000 2.033305 0.000000
v 0.707107 2.033305 0.707107
v -0.000000 2.033305 1.000000
v -0.707107 2.033305 0.707107
v -1.000000 2.033305 -0.000000
v -0.707107 2.033305 -0.707107
v 0.000000 2.234478 -0.954892
v 0.675211 2.234478 -0.675211
v 0.954892 2.234478 0.000000
v 0.675211 2.234478 0.675211
v -0.000000 2.234478 0.954892
v -0.675211 2.234478 0.675211
v -0.954892 2.234478 -0.000000
v -0.675211 2.234478 -0.675211
v -0.000000 2.279259 -0.609784
v 0.431183 2.279259 -0.431183
v 0.609784 2.279259 0.000000
v 0.431183 2.279259 0.431183
v -0.000000 2.279259 0.609784
v -0.431183 2.279259 0.431182
v -0.609784 2.279259 -0.000000
v -0.431183 2.279259 -0.431182
v -0.439712 1.727154 0.208649
v -0.439712 2.573639 0.208649
v -0.599257 1.727154 -0.141959
v -0.599257 2.573639 -0.141959
v -0.089105 1.727154 0.049104
v -0.089105 2.573639 0.049104
v -0.248650 1.727154 -0.301503
v -0.248650 2.573639 -0.301503
v -0.039883 1.820442 0.596903
v -0.039883 2.480351 0.596903
v -0.164262 1.820442 0.323574
v -0.164262 2.480351 0.323574
v 0.233446 1.820442 0.472524
v 0.233446 2.480351 0.472524
v 0.109067 1.820442 0.199195
v 0.109067 2.480351 0.199195
v 0.108226 1.753579 0.178071
v 0.108226 2.740024 0.178071
v -0.077699 1.753579 -0.230507
v -0.077699 2.740024 -0.230507
v 0.516803 1.753579 -0.007854
v 0.516803 2.740024 -0.007854
v 0.330879 1.753579 -0.416431
v 0.330879 2.740024 -0.416431
v -0.348942 2.336132 -0.353900
v -0.156106 2.336132 -0.546736
v 0.036730 2.336132 -0.353900
v -0.156106 2.336132 -0.161064
v -0.156106 2.143296 -0.353900
v -0.156106 2.528968 -0.353900
v -0.300733 2.191505 -0.353900
v -0.300733 2.336132 -0.209273
v -0.300733 2.480759 -0.353900
v -0.300733 2.336132 -0.498527
v -0.156106 2.191505 -0.498527
v -0.156106 2.480759 -0.498527
v -0.011479 2.336132 -0.498527
v -0.011479 2.191505 -0.353900
v -0.011479 2.480759 -0.353900
v -0.011479 2.336132 -0.209273
v -0.156106 2.191505 -0.209273
v -0.156106 2.480759 -0.209273
v -0.263238 2.229001 -0.246769
v -0.263238 2.443263 -0.246769
v -0.263238 2.229001 -0.461031
v -0.263238 2.443263 -0.461031
v -0.048975 2.229001 -0.246769
v -0.048975 2.443263 -0.246769
v -0.048975 2.229001 -0.461031
v -0.048975 2.443263 -0.461031
v -0.258143 2.336132 0.022044
v 0.057865 2.336132 -0.027988
v 0.107897 2.336132 0.288021
v -0.208111 2.336132 0.338053
v -0.075123 2.109897 0.155032
v -0.075123 2.562367 0.155032
v -0.212388 2.166456 0.055291
v -0.312129 2.336132 0.192556
v -0.212388 2.505808 0.055291
v -0.112647 2.336132 -0.081974
v 0.024618 2.166456 0.017767
v 0.024618 2.505808 0.017767
v 0.161883 2.336132 0.117509
v 0.062142 2.166456 0.254774
v 0.062142 2.505808 0.254774
v -0.037599 2.336132 0.392039
v -0.174864 2.166456 0.292297
v -0.174864 2.505808 0.292297
v -0.250683 2.210446 0.182828
v -0.250683 2.461818 0.182828
v -0.102918 2.210446 -0.020528
v -0.102918 2.461818 -0.020528
v -0.047327 2.210446 0.330593
v -0.047327 2.461818 0.330593
v 0.100437 2.210446 0.127237
v 0.100437 2.461818 0.127237
v 0.079660 -0.409786 0.240253
v 0.272496 -0.409786 0.047417
v 0.465332 -0.409786 0.240253
v 0.272496 -0.409786 0.433089
v 0.272496 -0.216949 0.240253
v 0.272496 -0.602622 0.240253
v 0.127869 -0.265159 0.240253
v 0.127869 -0.409786 0.384880
v 0.127869 -0.554413 0.240253
v 0.127869 -0.409786 0.095626
v 0.272496 -0.265159 0.095626
v 0.272496 -0.554413 0.095626
v 0.417123 -0.409786 0.095626
v 0.417123 -0.265159 0.240253
v 0.417123 -0.554413 0.240253
v 0.417123 -0.409786 0.384880
v 0.272496 -0.265159 0.384880
v 0.272496 -0.554413 0.384880
v 0.165365 -0.302654 0.347384
v 0.165365 -0.516917 0.347384
v 0.165365 -0.302654 0.133122
v 0.165365 -0.516917 0.133122
v 0.379627 -0.302654 0.347384
v 0.379627 -0.516917 0.347384
v 0.379627 -0.302654 0.133122
v 0.379627 -0.516917 0.133122
v 0.000000 0.989396 -1.000000
v 0.000000 0.883958 -0.954892
v 0.707107 0.989396 -0.707107
v 0.675211 0.883958 -0.675211
v 1.000000 0.989396 0.000000
v 0.954892 0.883958 0.000000
v 0.707107 0.989396 0.707107
v 0.675211 0.883958 0.675211
v -0.000000 0.989396 1.000000
v -0.000000 0.883958 0.954892
v -0.707107 0.989396 0.707107
v -0.675211 0.883958 0.675211
v -1.000000 0.989396 -0.000000
v -0.954892 0.883958 -0.000000
v -0.707107 0.989396 -0.707107
v -0.675211 0.883958 -0.675211
v 0.707107 -0.106959 -0.707107
v 0.000000 -0.106959 -1.000000
v 1.000000 -0.106959 0.000000
v 0.707107 -0.106959 0.707107
v -0.000000 -0.106959 1.000000
v -0.707107 -0.106959 0.707107
v -1.000000 -0.106959 -0.000000
v -0.707107 -0.106959 -0.707107
v 0.000000 -0.308132 -0.954892
v 0.675211 -0.308132 -0.675211
v 0.954892 -0.308132 0.000000
v 0.675211 -0.308132 0.675211
v -0.000000 -0.308132 0.954892
v -0.675211 -0.308132 0.675211
v -0.954892 -0.308132 -0.000000
v -0.675211 -0.308132 -0.675211
v -0.000000 -0.352912 -0.609784
v 0.431183 -0.352912 -0.431183
v 0.609784 -0.352912 0.000000
v 0.431183 -0.352912 0.431183
v -0.000000 -0.352912 0.609784
v -0.431183 -0.352912 0.431182
v -0.609784 -0.352912 -0.000000
v -0.431183 -0.352912 -0.431182
v -0.439712 0.199193 0.208649
v -0.439712 -0.647292 0.208649
v -0.599257 0.199193 -0.141959
v -0.599257 -0.647292 -0.141959
v -0.089105 0.199193 0.049104
v -0.089105 -0.647292 0.049104
v -0.248650 0.199193 -0.301503
v -0.248650 -0.647292 -0.301503
v -0.039883 0.105905 0.596903
v -0.039883 -0.554004 0.596903
v -0.164262 0.105905 0.323574
v -0.164262 -0.554004 0.323574
v 0.233446 0.105905 0.472524
v 0.233446 -0.554004 0.472524
v 0.109067 0.105905 0.199195
v 0.109067 -0.554004 0.199195
v 0.108226 0.172768 0.178071
v 0.108226 -0.813677 0.178071
v -0.077699 0.172768 -0.230507
v -0.077699 -0.813677 -0.230507
v 0.516803 0.172768 -0.007854
v 0.516803 -0.813677 -0.007854
v 0.330879 0.172768 -0.416431
v 0.330879 -0.813677 -0.416431
v -0.348942 -0.409786 -0.353900
v -0.156106 -0.409786 -0.546736
v 0.036730 -0.409786 -0.353900
v -0.156106 -0.409786 -0.161064
v -0.156106 -0.216949 -0.353900
v -0.156106 -0.602622 -0.353900
v -0.300733 -0.265159 -0.353900
v -0.300733 -0.409786 -0.209273
v -0.300733 -0.554413 -0.353900
v -0.300733 -0.409786 -0.498527
v -0.156106 -0.265159 -0.498527
v -0.156106 -0.554413 -0.498527
v -0.011479 -0.409786 -0.498527
v -0.011479 -0.265159 -0.353900
v -0.011479 -0.554413 -0.353900
v -0.011479 -0.409786 -0.209273
v -0.156106 -0.265159 -0.209273
v -0.156106 -0.554413 -0.209273
v -0.263238 -0.302654 -0.246769
v -0.263238 -0.516917 -0.246769
v -0.263238 -0.302654 -0.461031
v -0.263238 -0.516917 -0.461031
v -0.048975 -0.302654 -0.246769
v -0.048975 -0.516917 -0.246769
v -0.048975 -0.302654 -0.461031
v -0.048975 -0.516917 -0.461031
v -0.258143 -0.409786 0.022044
v 0.057865 -0.409786 -0.027988
v 0.107897 -0.409786 0.288021
v -0.208111 -0.409786 0.338053
v -0.075123 -0.183551 0.155032
v -0.075123 -0.636021 0.155032
v -0.212388 -0.240109 0.055291
v -0.312129 -0.409786 0.192556
v -0.212388 -0.579462 0.055291
v -0.112647 -0.409786 -0.081974
v 0.024618 -0.240109 0.017767
v 0.024618 -0.579462 0.017767
v 0.161883 -0.409786 0.117509
v 0.062142 -0.240109 0.254774
v 0.062142 -0.579462 0.254774
v -0.037599 -0.409786 0.392039
v -0.174864 -0.240109 0.292297
v -0.174864 -0.579462 0.292297
v -0.250683 -0.284100 0.182828
v -0.250683 -0.535472 0.182828
v -0.102918 -0.284100 -0.020528
v -0.102918 -0.535472 -0.020528
v -0.047327 -0.284100 0.330593
v -0.047327 -0.535472 0.330593
v 0.100437 -0.284100 0.127237
v 0.100437 -0.535472 0.127237
vn 0.3827 0.0000 -0.9239
vn 0.9239 0.0000 -0.3827
vn 0.9239 0.0000 0.3827
vn 0.3827 0.0000 0.9239
vn -0.3827 0.0000 0.9239
vn -0.9239 0.0000 0.3827
vn -0.9239 0.0000 -0.3827
vn -0.3827 0.0000 -0.9239
vn -0.1285 0.9903 0.0532
vn 0.0000 1.0000 0.0000
vn 0.0532 0.9903 0.1285
vn 0.1285 0.9903 -0.0532
vn -0.1285 0.9903 -0.0532
vn -0.0532 0.9903 0.1285
vn 0.1285 0.9903 0.0532
vn 0.0532 0.9903 -0.1285
vn -0.0532 0.9903 -0.1285
vn -0.1285 -0.9903 0.0532
vn 0.0000 -1.0000 0.0000
vn 0.0532 -0.9903 0.1285
vn 0.1285 -0.9903 -0.0532
vn -0.1285 -0.9903 -0.0532
vn -0.0532 -0.9903 0.1285
vn 0.1285 -0.9903 0.0532
vn 0.0532 -0.9903 -0.1285
vn -0.0532 -0.9903 -0.1285
vn -0.9102 0.0000 0.4142
vn -0.4142 0.0000 -0.9102
vn 0.9102 0.0000 -0.4142
vn 0.4142 0.0000 0.9102
vn -0.8704 -0.3482 0.3482
vn -0.8704 0.3482 0.3482
vn -0.8704 0.3482 -0.3482
vn -0.8704 -0.3482 -0.3482
vn -0.3482 -0.3482 -0.8704
vn -0.3482 0.3482 -0.8704
vn 0.3482 0.3482 -0.8704
vn 0.3482 -0.3482 -0.8704
vn 0.8704 -0.3482 -0.3482
vn 0.8704 0.3482 -0.3482
vn 0.8704 0.3482 0.3482
vn 0.8704 -0.3482 0.3482
vn 0.3482 -0.3482 0.8704
vn 0.3482 0.3482 0.8704
vn -0.3482 0.3482 0.8704
vn -0.3482 -0.3482 0.8704
vn -0.3482 -0.8704 -0.3482
vn 0.3482 -0.8704 -0.3482
vn 0.3482 -0.8704 0.3482
vn -0.3482 -0.8704 0.3482
vn 0.3482 0.8704 -0.3482
vn -0.3482 0.8704 -0.3482
vn -0.3482 0.8704 0.3482
vn 0.3482 0.8704 0.3482
vn -0.9088 -0.3482 -0.2300
vn -0.9088 0.3482 -0.2300
vn -0.4995 0.3482 -0.7933
vn -0.4995 -0.3482 -0.7933
vn 0.2300 -0.3482 -0.9088
vn 0.2300 0.3482 -0.9088
vn 0.7933 0.3482 -0.4995
vn 0.7933 -0.3482 -0.4995
vn 0.9088 -0.3482 0.2300
vn 0.9088 0.3482 0.2300
vn 0.4995 0.3482 0.7933
vn 0.4995 -0.3482 0.7933
vn -0.2300 -0.3482 0.9088
vn -0.2300 0.3482 0.9088
vn -0.7933 0.3482 0.4995
vn -0.7933 -0.3482 0.4995
vn -0.0770 -0.8704 -0.4863
vn 0.4863 -0.8704 -0.0770
vn 0.0770 -0.8704 0.4863
vn -0.4863 -0.8704 0.0770
vn 0.4863 0.8704 -0.0770
vn -0.0770 0.8704 -0.4863
vn -0.4863 0.8704 0.0770
vn 0.0770 0.8704 0.4863
g Cube_Cube.001_Material.001
usemtl Material.001
s off
f 27//1 44//1 43//1 29//1
f 29//2 43//2 45//2 31//2
f 31//3 45//3 46//3 33//3
f 33//4 46//4 47//4 35//4
f 35//5 47//5 48//5 37//5
f 37//6 48//6 49//6 39//6
f 39//7 49//7 50//7 41//7
f 41//8 50//8 44//8 27//8
f 169//1 171//1 185//1 186//1
f 171//2 173//2 187//2 185//2
f 173//3 175//3 188//3 187//3
f 175//4 177//4 189//4 188//4
f 177//5 179//5 190//5 189//5
f 179//6 181//6 191//6 190//6
f 181//7 183//7 192//7 191//7
f 183//8 169//8 186//8 192//8
g Cube_Cube.001_Material.002
usemtl Material.002
f 42//7 40//7 57//7 58//7
f 57//9 56//9 64//9 65//9
f 38//5 36//5 55//5 56//5
f 34//3 32//3 53//3 54//3
f 30//1 28//1 51//1 52//1
f 28//8 42//8 58//8 51//8
f 40//6 38//6 56//6 57//6
f 36//4 34//4 54//4 55//4
f 32//2 30//2 52//2 53//2
f 60//10 59//10 66//10 65//10 64//10 63//10 62//10 61//10
f 55//11 54//11 62//11 63//11
f 53//12 52//12 60//12 61//12
f 58//13 57//13 65//13 66//13
f 56//14 55//14 63//14 64//14
f 54//15 53//15 61//15 62//15
f 52//16 51//16 59//16 60//16
f 51//17 58//17 66//17 59//17
f 184//7 200//7 199//7 182//7
f 199//18 207//18 206//18 198//18
f 180//5 198//5 197//5 178//5
f 176//3 196//3 195//3 174//3
f 172//1 194//1 193//1 170//1
f 170//8 193//8 200//8 184//8
f 182//6 199//6 198//6 180//6
f 178//4 197//4 196//4 176//4
f 174//2 195//2 194//2 172//2
f 202//19 203//19 204//19 205//19 206//19 207//19 208//19 201//19
f 197//20 205//20 204//20 196//20
f 195//21 203//21 202//21 194//21
f 200//22 208//22 207//22 199//22
f 198//23 206//23 205//23 197//23
f 196//24 204//24 203//24 195//24
f 194//25 202//25 201//25 193//25
f 193//26 201//26 208//26 200//26
g Cube_Cube.001_Material.003
usemtl Material.003
f 67//27 68//27 70//27 69//27
f 69//28 70//28 74//28 73//28
f 73//29 74//29 72//29 71//29
f 71//30 72//30 68//30 67//30
f 69//19 73//19 71//19 67//19
f 74//10 70//10 68//10 72//10
f 75//27 76//27 78//27 77//27
f 77//28 78//28 82//28 81//28
f 81//29 82//29 80//29 79//29
f 79//30 80//30 76//30 75//30
f 77//19 81//19 79//19 75//19
f 82//10 78//10 76//10 80//10
f 83//27 84//27 86//27 85//27
f 85//28 86//28 90//28 89//28
f 89//29 90//29 88//29 87//29
f 87//30 88//30 84//30 83//30
f 85//19 89//19 87//19 83//19
f 90//10 86//10 84//10 88//10
f 209//27 211//27 212//27 210//27
f 211//28 215//28 216//28 212//28
f 215//29 213//29 214//29 216//29
f 213//30 209//30 210//30 214//30
f 211//10 209//10 213//10 215//10
f 216//19 214//19 210//19 212//19
f 217//27 219//27 220//27 218//27
f 219//28 223//28 224//28 220//28
f 223//29 221//29 222//29 224//29
f 221//30 217//30 218//30 222//30
f 219//10 217//10 221//10 223//10
f 224//19 222//19 218//19 220//19
f 225//27 227//27 228//27 226//27
f 227//28 231//28 232//28 228//28
f 231//29 229//29 230//29 232//29
f 229//30 225//30 226//30 230//30
f 227//10 225//10 229//10 231//10
f 232//19 230//19 226//19 228//19
g Cube_Cube.001_Material.004
usemtl Material.004
f 1//31 7//31 19//31 8//31
f 1//32 8//32 20//32 9//32
f 1//33 9//33 22//33 10//33
f 1//34 10//34 21//34 7//34
f 2//35 11//35 21//35 10//35
f 2//36 10//36 22//36 12//36
f 2//37 12//37 26//37 13//37
f 2//38 13//38 25//38 11//38
f 3//39 14//39 25//39 13//39
f 3//40 13//40 26//40 15//40
f 3//41 15//41 24//41 16//41
f 3//42 16//42 23//42 14//42
f 4//43 17//43 23//43 16//43
f 4//44 16//44 24//44 18//44
f 4//45 18//45 20//45 8//45
f 4//46 8//46 19//46 17//46
f 5//47 7//47 21//47 11//47
f 5//48 11//48 25//48 14//48
f 5//49 14//49 23//49 17//49
f 5//50 17//50 19//50 7//50
f 6//51 15//51 26//51 12//51
f 6//52 12//52 22//52 9//52
f 6//53 9//53 20//53 18//53
f 6//54 18//54 24//54 15//54
f 91//31 97//31 109//31 98//31
f 91//32 98//32 110//32 99//32
f 91//33 99//33 112//33 100//33
f 91//34 100//34 111//34 97//34
f 92//35 101//35 111//35 100//35
f 92//36 100//36 112//36 102//36
f 92//37 102//37 116//37 103//37
f 92//38 103//38 115//38 101//38
f 93//39 104//39 115//39 103//39
f 93//40 103//40 116//40 105//40
f 93//41 105//41 114//41 106//41
f 93//42 106//42 113//42 104//42
f 94//43 107//43 113//43 106//43
f 94//44 106//44 114//44 108//44
f 94//45 108//45 110//45 98//45
f 94//46 98//46 109//46 107//46
f 95//47 97//47 111//47 101//47
f 95//48 101//48 115//48 104//48
f 95//49 104//49 113//49 107//49
f 95//50 107//50 109//50 97//50
f 96//51 105//51 116//51 102//51
f 96//52 102//52 112//52 99//52
f 96//53 99//53 110//53 108//53
f 96//54 108//54 114//54 105//54
f 117//55 123//55 135//55 124//55
f 117//56 124//56 136//56 125//56
f 117//57 125//57 138//57 126//57
f 117//58 126//58 137//58 123//58
f 118//59 127//59 137//59 126//59
f 118//60 126//60 138//60 128//60
f 118//61 128//61 142//61 129//61
f 118//62 129//62 141//62 127//62
f 119//63 130//63 141//63 129//63
f 119//64 129//64 142//64 131//64
f 119//65 131//65 140//65 132//65
f 119//66 132//66 139//66 130//66
f 120//67 133//67 139//67 132//67
f 120//68 132//68 140//68 134//68
f 120//69 134//69 136//69 124//69
f 120//70 124//70 135//70 133//70
f 121//71 123//71 137//71 127//71
f 121//72 127//72 141//72 130//72
f 121//73 130//73 139//73 133//73
f 121//74 133//74 135//74 123//74
f 122//75 131//75 142//75 128//75
f 122//76 128//76 138//76 125//76
f 122//77 125//77 136//77 134//77
f 122//78 134//78 140//78 131//78
f 143//32 150//32 161//32 149//32
f 143//31 151//31 162//31 150//31
f 143//34 152//34 164//34 151//34
f 143//33 149//33 163//33 152//33
f 144//36 152//36 163//36 153//36
f 144//35 154//35 164//35 152//35
f 144//38 155//38 168//38 154//38
f 144//37 153//37 167//37 155//37
f 145//40 155//40 167//40 156//40
f 145//39 157//39 168//39 155//39
f 145//42 158//42 166//42 157//42
f 145//41 156//41 165//41 158//41
f 146//44 158//44 165//44 159//44
f 146//43 160//43 166//43 158//43
f 146//46 150//46 162//46 160//46
f 146//45 159//45 161//45 150//45
f 147//52 153//52 163//52 149//52
f 147//51 156//51 167//51 153//51
f 147//54 159//54 165//54 156//54
f 147//53 149//53 161//53 159//53
f 148//48 154//48 168//48 157//48
f 148//47 151//47 164//47 154//47
f 148//50 160//50 162//50 151//50
f 148//49 157//49 166//49 160//49
f 233//32 240//32 251//32 239//32
f 233//31 241//31 252//31 240//31
f 233//34 242//34 254//34 241//34
f 233//33 239//33 253//33 242//33
f 234//36 242//36 253//36 243//36
f 234//35 244//35 254//35 242//35
f 234//38 245//38 258//38 244//38
f 234//37 243//37 257//37 245//37
f 235//40 245//40 257//40 246//40
f 235//39 247//39 258//39 245//39
f 235//42 248//42 256//42 247//42
f 235//41 246//41 255//41 248//41
f 236//44 248//44 255//44 249//44
f 236//43 250//43 256//43 248//43
f 236//46 240//46 252//46 250//46
f 236//45 249//45 251//45 240//45
f 237//52 243//52 253//52 239//52
f 237//51 246//51 257//51 243//51
f 237//54 249//54 255//54 246//54
f 237//53 239//53 251//53 249//53
f 238//48 244//48 258//48 247//48
f 238//47 241//47 254//47 244//47
f 238//50 250//50 252//50 241//50
f 238//49 247//49 256//49 250//49
f 259//56 266//56 277//56 265//56
f 259//55 267//55 278//55 266//55
f 259//58 268//58 280//58 267//58
f 259//57 265//57 279//57 268//57
f 260//60 268//60 279//60 269//60
f 260//59 270//59 280//59 268//59
f 260//62 271//62 284//62 270//62
f 260//61 269//61 283//61 271//61
f 261//64 271//64 283//64 272//64
f 261//63 273//63 284//63 271//63
f 261//66 274//66 282//66 273//66
f 261//65 272//65 281//65 274//65
f 262//68 274//68 281//68 275//68
f 262//67 276//67 282//67 274//67
f 262//70 266//70 278//70 276//70
f 262//69 275//69 277//69 266//69
f 263//76 269//76 279//76 265//76
f 263//75 272//75 283//75 269//75
f 263//78 275//78 281//78 272//78
f 263//77 265//77 277//77 275//77
f 264//72 270//72 284//72 273//72
f 264//71 267//71 280//71 270//71
f 264//74 276//74 278//74 267//74
f 264//73 273//73 282//73 276//73
