<svg xmlns="http://www.w3.org/2000/svg" xmlns:xlink="http://www.w3.org/1999/xlink" viewBox="0 0 622.15 776.85">
    <defs>
        <style>
            .a{fill:#383838;}.b{fill:#f0f0f0;}.b,.c,.e,.f{stroke:#000;stroke-miterlimit:10;}.b,.c,.f{stroke-width:7px;}.c{fill:url(#a);}.d{fill:#96b482;}.e{fill:#dde4ea;stroke-width:4px;}.f{fill:#f2f2f2;}
        </style>
        <linearGradient id="a" x1="396.25" y1="741.01" x2="396.25" y2="293.22" gradientUnits="userSpaceOnUse">
            <stop offset="0" stop-color="#fff"/>
            <stop offset="0" stop-color="#8cc2ff"/>
            <stop offset="1" stop-color="#b6d8ff"/>
            <stop offset="1"/>
        </linearGradient>
    </defs>
    <title>ETW_Logo_-01</title>
    <path class="a"
          d="M583.68,598c-6.28-1.94-144-13.66-173-16.11v-.46l-2.68.23-2.69-.23v.46c-29.05,2.45-166.73,14.17-173,16.11-13.61,4.23-88.21,44.39-83.15,86.93,3.16,26.63,34.19,47.84,69.29,66.47C257.18,772,304,785.6,354.81,787.87c12.15.54,43.77,2,53.18,1.68,9.41.28,41-1.14,53.17-1.68C512,785.6,558.79,772,597.54,751.41c35.1-18.63,66.13-39.84,69.29-66.47C671.88,642.4,597.29,602.24,583.68,598Z"
          transform="translate(-47.43 -12.74)"/>
    <path class="b"
          d="M582.68,582c-6.28-1.94-144-13.66-173-16.11v-.46l-2.68.23-2.69-.23v.46c-29.05,2.45-166.73,14.17-173,16.11-13.61,4.23-88.21,44.39-83.15,86.93,3.16,26.63,34.19,47.84,69.29,66.47C256.18,756,303,769.6,353.81,771.87c12.15.54,43.77,2,53.18,1.68,9.41.28,41-1.14,53.17-1.68C511,769.6,557.79,756,596.54,735.41c35.1-18.63,66.13-39.84,69.29-66.47C670.88,626.4,596.29,586.24,582.68,582Z"
          transform="translate(-47.43 -12.74)"/>
    <path class="c"
          d="M631.32,506.13a268.78,268.78,0,0,0-43.18-100c-4.26-6-22.63-31.48-54.54-56.81-16.29-12.94-47.64-37.3-95.45-50-26.11-6.93-26.88-6.07-41.9-6.07s-15.78-.86-41.9,6.07c-47.81,12.7-79.15,37.06-95.45,50-31.9,25.33-50.27,50.77-54.54,56.81a269.11,269.11,0,0,0-43.18,100c-7.43,35.8-10.24,62.84,2.28,97.72,14.38,40.07,31.81,64.39,74.23,90.9C278,720,323.06,742,396.2,741c73.21,1.07,120.48-17.79,158.61-46.22,40.85-30.45,59.86-50.83,74.24-90.9C641.57,569,638.75,541.93,631.32,506.13Z"
          transform="translate(-47.43 -12.74)"/>
    <path class="d"
          d="M330,715.37c6.28-3.58.87-13.79,2.3-20.67.62-3,5.8-8.12,5.31-11.15-.66-4-11.27-7.2-12.42-11.14-2.31-7.93,11.48-22.21,16.08-29.18,3.39-5.12,15.86-13.38,15.16-19.4-.49-4.18-11.87-6.65-13.66-10.48-1.56-3.34,2.16-10.91,3.94-14.15,1.13-2.05,5.73-5.94,4.79-8.08-2.95-6.69-21.89-5.79-29.36-6.9-8.6-1.27-24.84-7.71-33.26-9.81-7.8-1.94-23.77-4.61-31.83-5-3.63-.17-11.21,1.91-14.54.5-2.17-.91-3.87-6-5.94-7.1-2.5-1.31-9,1.89-11.38.4-3.64-2.28.06-14.3-3.73-16.32-5.58-2.95-18.72,7.51-21.71,12.94-1.91,3.45-4,11.49-3.27,15.33,2.16,11-10.68,36.88-4.58,46.35,10.19,15.85,36.16,46.94,53.16,58.53,8.84,6,35.24,21.21,44.51,26.59C298.42,711.78,321.09,720.45,330,715.37Z"
          transform="translate(-47.43 -12.74)"/>
    <path class="d"
          d="M194.89,451.77c-1.2,6.21-3.2,21.55,2,25.23,2.6,1.86,9.73-1.62,12.26-3.57,4.53-3.48,11.84-19.56,11.84-19.56s8.27-2.09,10.56-3.71c14.75-10.43,40-49.68,30.93-65.33-2.74-4.73-17.18-4.7-21.78-1.76C223.27,394.19,198.79,431.5,194.89,451.77Z"
          transform="translate(-47.43 -12.74)"/>
    <path class="d"
          d="M518.36,691.37c2.74,1.13,9,.73,11.93,0,4.43-1.11,12.37-6.68,14.77-10.44,3.63-5.69.62-20.87,4.55-26.38,2.06-2.89,10.35-4.3,12.5-7.14,3.47-4.6,3.95-16.73,6.25-22,4.6-10.53,18-29.66,25.56-38.46,5.85-6.81,20.25-18.5,24.43-26.37,2.43-4.58,3.49-15.19,3.41-20.33,0-3.14-2.07-10.46-5.11-11.54-5.11-1.82-16.1,7.73-21,5.49-14-6.36-25.57-54.4-25.57-54.4s21.48,27.43,31.82,32.42c2.93,1.42,10.82,1.21,13.06-1.1,3.8-3.9.44-16.09,0-21.43-.48-5.88-2.91-17.57-5.11-23.07-8.33-20.91-32.38-58.55-49.43-75.83-16.09-16.32-44.31-43.19-65.9-50.55-3.39-1.15-11.66.26-14.21,2.75-3.07,3-2.59,13-5.68,15.93-6.44,6.18-25.83,8.39-34.66,10.44-6.43,1.5-21-8.24-25.56,6.59-1.32,4.32-10.56,11-9.66,15.39,1.49,7.3,19.11,13.61,26.7,14.83,12.48,2,37.3-7,49.43-10.44,9.35-2.66,31.57-11.43,38.63-4.94,2.09,1.91-.79,9.62,1.71,11,3.15,1.72,11-4.43,14.2-2.75,9.63,5.1,15.91,39.56,15.91,39.56s-12.38-7.74-17-9.06c-8-2.29-25.77-1.72-33.52,1.37-3,1.21-7.56,6.68-10.8,7.14-8.76,1.26-25.83-7.91-34.66-7.14-14.51,1.27-41.94,16.66-50.56,28-9.83,13-12.06,53.23,0,64.29,2.89,2.66,12.34-.62,15.91,1.1,6.21,3,14.28,15.93,21,17.58s21.93-4.64,27.27-.55c9.1,7,11.2,32.83,9.66,44-1.31,9.45-8.3,27.83-8,37.37.17,4.67,4.12,14.19,8,17,4.22,3.13,21,3.3,21,3.3s3.76,30.56,8.52,39.56C509.69,685.52,515.21,690.07,518.36,691.37Z"
          transform="translate(-47.43 -12.74)"/>
    <path class="e" d="M36.33-.64" transform="translate(-47.43 -12.74)"/>
    <path class="e" d="M37.17-.88" transform="translate(-47.43 -12.74)"/>
    <path class="f"
          d="M386.46,359.1s-33.14-101.6-74-111.52c-21.69-5.26-54.71-7.71-54.71-7.71A553.25,553.25,0,0,1,214.78,198,682.63,682.63,0,0,1,138.85,97.5h0c-20.58-38.35-36.22-62-47.22-72h0c-12.88-11.7-26.9-11.26-35.83-4.21-7.12,5.64-5.53,22.19-1,29.86,20.77,35.24,48.64,58.12,60.39,68.47C138,139.62,166.62,173.75,199.9,212A257.26,257.26,0,0,1,233,260.28s-2.89,34.46-1.58,57.21c2.46,42.9,94.93,94.08,94.93,94.08l6.4-6.42c5.06,6.2-74.89-81.81-57.75-75.86,13,4.52,65.61,68.57,65.61,68.57l9.58-7.78s-70.06-88.73-53.32-78.62c16.22,9.8,64.87,68.82,64.87,68.82l9.09-7.28s-66.53-90.28-50.62-80.38c11.31,7,59.47,72.34,59.47,72.34Z"
          transform="translate(-47.43 -12.74)"/>
</svg>